<svg width="100" height="100" viewBox="0 0 100 100" xmlns="http://www.w3.org/2000/svg">
  <!-- Outer circle -->
  <circle cx="50" cy="50" r="48" fill="white" stroke="#1E3A8A" stroke-width="2"/>
  
  <!-- Inner circle -->
  <circle cx="50" cy="50" r="35" fill="#1E3A8A"/>
  
  <!-- Letter G -->
  <path d="M35 35 L35 65 L55 65 L55 55 L45 55 L45 50 L60 50 L60 65 L60 70 L30 70 L30 30 L60 30 L60 40 L35 40 Z" fill="white"/>
  
  <!-- Red accent -->
  <path d="M45 35 L55 35 L55 45 L45 45 Z" fill="#DC143C"/>
  
  <!-- Stars -->
  <polygon points="20,85 22,80 24,85 29,85 25,88 27,93 22,90 17,93 19,88 15,85" fill="#DC143C"/>
  <polygon points="76,85 78,80 80,85 85,85 81,88 83,93 78,90 73,93 75,88 71,85" fill="#DC143C"/>
  
  <!-- Text curve (simplified) -->
  <text x="50" y="15" text-anchor="middle" font-family="Arial, sans-serif" font-size="8" font-weight="bold" fill="#1E3A8A">GAZİANTEP ÜNİVERSİTESİ</text>
  <text x="50" y="92" text-anchor="middle" font-family="Arial, sans-serif" font-size="6" fill="#1E3A8A">1973</text>
</svg>